HIERARCHY
ROOT SpineBase
{
  OFFSET 0.000000 0.000000 0.000000
  CHANNELS 6 Xposition Yposition Zposition Zrotation Xrotation Yrotation
  JOINT SpineMid
  {
    OFFSET 0.000000 32.298866 0.000000
    CHANNELS 3 Zrotation Xrotation Yrotation
    JOINT SpineShoulder
    {
      OFFSET 0.096138 23.890062 -0.603134
      CHANNELS 3 Zrotation Xrotation Yrotation
      JOINT Neck
      {
        OFFSET 0.101068 7.884541 -0.512078
        CHANNELS 3 Zrotation Xrotation Yrotation
        JOINT Head
        {
          OFFSET 3.086886 13.136903 -0.395987
          CHANNELS 3 Zrotation Xrotation Yrotation
          End Site
          {
            OFFSET 0 0 0
          }
        }
      }
      JOINT ShoulderLeft
      {
        OFFSET -9.605875 -2.914267 -12.637123
        CHANNELS 3 Zrotation Xrotation Yrotation
        JOINT ElbowLeft
        {
          OFFSET -3.658825 -21.401827 -6.467079
          CHANNELS 3 Zrotation Xrotation Yrotation
          JOINT WristLeft
          {
            OFFSET 14.353564 -16.488960 -2.155603
            CHANNELS 3 Zrotation Xrotation Yrotation
            JOINT HandLeft
            {
              OFFSET 4.116673 -5.585581 3.153556
              CHANNELS 3 Zrotation Xrotation Yrotation
              JOINT HandTipLeft
              {
                OFFSET 5.596056 -5.256480 -0.556507
                CHANNELS 3 Zrotation Xrotation Yrotation
                End Site
                {
                  OFFSET 0 0 0
                }
              }
              JOINT ThumbLeft
              {
                OFFSET -4.203261 -3.392949 0.864036
                CHANNELS 3 Zrotation Xrotation Yrotation
                End Site
                {
                  OFFSET 0 0 0
                }
              }
            }
          }
        }
      }
      JOINT ShoulderRight
      {
        OFFSET 11.635103 -5.155661 9.530114
        CHANNELS 3 Zrotation Xrotation Yrotation
        JOINT ElbowRight
        {
          OFFSET 3.458730 -24.539470 -9.572293
          CHANNELS 3 Zrotation Xrotation Yrotation
          JOINT WristRight
          {
            OFFSET 2.074632 -21.232851 -1.945380
            CHANNELS 3 Zrotation Xrotation Yrotation
            JOINT HandRight
            {
              OFFSET -0.752262 -0.671616 1.300985
              CHANNELS 3 Zrotation Xrotation Yrotation
              JOINT HandTipRight
              {
                OFFSET 0.360692 -3.712899 -2.610876
                CHANNELS 3 Zrotation Xrotation Yrotation
                End Site
                {
                  OFFSET 0 0 0
                }
              }
              JOINT ThumbRight
              {
                OFFSET -3.076754 -1.161291 -0.423068
                CHANNELS 3 Zrotation Xrotation Yrotation
                End Site
                {
                  OFFSET 0 0 0
                }
              }
            }
          }
        }
      }
    }
  }
  JOINT HipLeft
  {
    OFFSET -4.206725 1.945935 -8.313280
    CHANNELS 3 Zrotation Xrotation Yrotation
    JOINT KneeLeft
    {
      OFFSET -6.675252 -25.706036 -5.439917
      CHANNELS 3 Zrotation Xrotation Yrotation
      JOINT AnkleLeft
      {
        OFFSET -6.119962 -34.067858 1.459915
        CHANNELS 3 Zrotation Xrotation Yrotation
        JOINT FootLeft
        {
          OFFSET 2.705704 -7.555315 -5.683535
          CHANNELS 3 Zrotation Xrotation Yrotation
          End Site
          {
            OFFSET 0 0 0
          }
        }
      }
    }
  }
  JOINT HipRight
  {
    OFFSET 5.420843 -0.390066 1.490172
    CHANNELS 3 Zrotation Xrotation Yrotation
    JOINT KneeRight
    {
      OFFSET -1.710248 -26.140416 7.285747
      CHANNELS 3 Zrotation Xrotation Yrotation
      JOINT AnkleRight
      {
        OFFSET -3.881082 -30.874527 6.185437
        CHANNELS 3 Zrotation Xrotation Yrotation
        JOINT FootRight
        {
          OFFSET 7.563153 -3.842393 -9.999777
          CHANNELS 3 Zrotation Xrotation Yrotation
          End Site
          {
            OFFSET 0 0 0
          }
        }
      }
    }
  }
}
MOTION
Frames: 12
Frame Time: 0.033333
-72.143996 65.514867 366.493961 -0.000000 0.000000 -45.518613 0.000000 -0.000000 45.518613 -0.000000 0.000000 0.000000 -0.000000 0.000000 0.000000 0.000000 0.000000 0.000000 -0.000000 0.000000 0.000000 -0.000000 0.000000 0.000000 -0.000000 0.000000 0.000000 -0.000000 0.000000 0.000000 0.000000 0.000000 0.000000 0.000000 0.000000 0.000000 -0.000000 0.000000 0.000000 -0.000000 0.000000 0.000000 -0.000000 0.000000 0.000000 -0.000000 0.000000 0.000000 0.000000 0.000000 0.000000 0.000000 0.000000 0.000000 0.000000 -0.000000 45.518613 -0.000000 0.000000 0.000000 -0.000000 0.000000 0.000000 0.000000 0.000000 0.000000 0.000000 -0.000000 45.518613 -0.000000 0.000000 0.000000 -0.000000 0.000000 0.000000 0.000000 0.000000 0.000000
-72.131843 65.549714 366.483761 0.034541 -0.005336 -45.255331 -0.028105 -0.020777 45.255328 -0.000000 0.000000 0.000000 -0.000000 0.000000 0.000000 0.000000 0.000000 0.000000 -0.000000 0.000000 0.000000 -0.876485 0.522560 0.576964 1.960809 -1.175667 -0.402594 -1.094113 0.636484 -0.144025 0.000000 0.000000 0.000000 0.000000 0.000000 0.000000 -0.253322 0.881261 0.224372 0.498952 -1.968888 -0.343663 -1.535073 7.428350 -10.301164 3.323408 -12.071179 10.352438 0.000000 0.000000 0.000000 0.000000 0.000000 0.000000 -0.028105 -0.020777 45.255328 -0.000000 0.000000 0.000000 0.058165 -1.126129 -0.449726 0.000000 0.000000 0.000000 -0.028105 -0.020777 45.255328 -0.000000 0.000000 0.000000 -0.000000 0.000000 0.000000 0.000000 0.000000 0.000000
-72.117802 65.579102 366.475971 0.069393 -0.013255 -45.025784 -0.058424 -0.039722 45.025772 -0.000000 0.000000 0.000000 -0.000000 0.000000 0.000000 0.000000 0.000000 0.000000 -0.000000 0.000000 0.000000 -1.621390 0.941877 1.057080 3.589971 -2.134805 -0.681243 -1.325780 1.752848 0.290307 0.000000 0.000000 0.000000 0.000000 0.000000 0.000000 -0.515613 1.720423 0.449029 0.986640 -3.990451 -0.676895 -1.222008 13.752870 -16.947930 7.713213 -25.698203 18.300687 0.000000 0.000000 0.000000 0.000000 0.000000 0.000000 -0.058424 -0.039722 45.025772 -0.000000 0.000000 0.000000 0.127528 -2.026452 -0.830165 0.000000 0.000000 0.000000 -0.058424 -0.039722 45.025772 -0.000000 0.000000 0.000000 -0.000000 0.000000 0.000000 0.000000 0.000000 0.000000
-72.101873 65.603030 366.470593 0.104545 -0.023758 -44.829948 -0.090893 -0.056855 44.829925 -0.000000 0.000000 0.000000 -0.825958 0.228229 -0.076756 0.000000 0.000000 0.000000 -0.000000 0.000000 0.000000 -2.199639 1.241635 1.413866 4.869091 -2.846344 -0.832830 -1.807884 2.216731 0.229054 0.000000 0.000000 0.000000 0.000000 0.000000 0.000000 -0.786693 2.517717 0.673949 1.461496 -6.055627 -1.000131 0.074911 18.871334 -20.726195 12.994666 -41.328643 25.720904 0.000000 0.000000 0.000000 0.000000 0.000000 0.000000 -0.090893 -0.056855 44.829925 -0.000000 0.000000 0.000000 0.212021 -2.691937 -1.138048 0.000000 0.000000 0.000000 -0.090893 -0.056855 44.829925 -0.000000 0.000000 0.000000 -0.000000 0.000000 0.000000 0.000000 0.000000 0.000000
-72.084056 65.621497 366.467626 0.139986 -0.036844 -44.667843 -0.125459 -0.072206 44.667808 -0.000000 0.000000 0.000000 -1.045437 0.358263 -0.112199 0.000000 0.000000 0.000000 -0.000000 0.000000 0.000000 -2.580362 1.408364 1.624271 5.781697 -3.284586 -0.854571 -2.160041 2.431375 0.050991 0.000000 0.000000 0.000000 0.000000 0.000000 0.000000 -1.066397 3.273419 0.899100 1.922133 -8.154111 -1.313964 1.852456 23.065924 -22.410154 18.982048 -56.950213 34.534483 0.000000 0.000000 0.000000 0.000000 0.000000 0.000000 -0.125459 -0.072206 44.667808 -0.000000 0.000000 0.000000 0.314664 -3.116248 -1.371055 0.000000 0.000000 0.000000 -0.125459 -0.072206 44.667808 -0.000000 0.000000 0.000000 -0.000000 0.000000 0.000000 0.000000 0.000000 0.000000
-72.064350 65.634505 366.467070 0.175706 -0.052510 -44.539531 -0.162068 -0.085813 44.539491 -0.000000 0.000000 0.000000 -1.235811 0.515517 -0.152463 0.000000 0.000000 0.000000 -0.000000 0.000000 0.000000 -2.739979 1.432160 1.671217 6.314915 -3.431689 -0.744232 -2.380730 2.406223 -0.238476 0.000000 0.000000 0.000000 0.000000 0.000000 0.000000 -1.354582 3.987842 1.124440 2.367368 -10.274585 -1.619131 3.860363 26.616745 -22.561937 22.978667 -68.891235 43.055419 0.000000 0.000000 0.000000 0.000000 0.000000 0.000000 -0.162068 -0.085813 44.539491 -0.000000 0.000000 0.000000 0.437422 -3.295502 -1.527866 0.000000 0.000000 0.000000 -0.162068 -0.085813 44.539491 -0.000000 0.000000 0.000000 -0.000000 0.000000 0.000000 0.000000 0.000000 0.000000
-72.041167 65.650680 366.456992 0.218140 -0.058997 -44.402434 -0.197129 -0.110481 44.402357 -0.000000 0.000000 0.000000 -1.433033 0.786983 -0.217688 0.000000 0.000000 0.000000 -0.000000 0.000000 0.000000 -2.388189 0.870283 1.106938 6.143893 -2.516036 0.026980 -2.556001 1.493366 -1.179322 0.000000 0.000000 0.000000 0.000000 0.000000 0.000000 -1.786937 5.436451 1.523803 3.020141 -13.909118 -2.096748 5.904110 31.292714 -23.794668 87.651501 -80.843726 110.363725 0.000000 0.000000 0.000000 0.000000 0.000000 0.000000 -0.197129 -0.110481 44.402357 -0.000000 0.000000 0.000000 0.554081 -3.398536 -1.651704 0.000000 0.000000 0.000000 -0.197129 -0.110481 44.402357 -0.000000 0.000000 0.000000 -0.000000 0.000000 0.000000 0.000000 0.000000 0.000000
-72.011956 65.653450 366.460016 0.262917 -0.079830 -44.315573 -0.243888 -0.126558 44.315487 -0.000000 0.000000 0.000000 -1.572555 1.015438 -0.271278 0.000000 0.000000 0.000000 -0.000000 0.000000 0.000000 -2.081869 0.593408 0.811816 5.944650 -2.259671 0.302985 -2.084503 2.001430 -0.784167 0.000000 0.000000 0.000000 0.000000 0.000000 0.000000 -2.121310 5.706413 1.709365 3.441500 -15.513756 -2.344018 9.796405 35.044452 -21.607491 -8.660106 -70.606138 22.533506 0.000000 0.000000 0.000000 0.000000 0.000000 0.000000 -0.243888 -0.126558 44.315487 -0.000000 0.000000 0.000000 0.632992 -3.156862 -1.619820 0.000000 0.000000 0.000000 -0.243888 -0.126558 44.315487 -0.000000 0.000000 0.000000 -0.000000 0.000000 0.000000 0.000000 0.000000 0.000000
-71.981347 65.646878 366.474584 0.300584 -0.107152 -44.289386 -0.289987 -0.133192 44.289330 -0.000000 0.000000 0.000000 -1.635740 1.137129 -0.299370 0.000000 0.000000 0.000000 0.432731 0.827721 -0.274972 -2.071933 -0.531117 0.736190 5.442220 -1.614758 0.766629 -1.947683 1.292623 -1.386798 0.000000 0.000000 0.000000 0.000000 0.000000 0.000000 -2.457843 6.046980 1.908100 2.449318 -17.029654 -2.743029 12.745909 35.734337 -16.098713 -33.950148 -56.860423 6.365580 0.000000 0.000000 0.000000 0.000000 0.000000 0.000000 -0.289987 -0.133192 44.289330 -0.000000 0.000000 0.000000 0.802839 -1.910081 -1.287529 0.000000 0.000000 0.000000 -0.289987 -0.133192 44.289330 -0.000000 0.000000 0.000000 -0.000000 0.000000 0.000000 0.000000 0.000000 0.000000
-71.954132 65.625590 366.499917 0.333174 -0.148871 -44.323380 -0.342372 -0.126288 44.323435 -0.000000 0.000000 0.000000 -1.704260 1.357027 -0.348981 0.000000 0.000000 0.000000 0.681067 0.922454 -0.368467 -2.261612 -0.769859 0.690416 5.518607 -1.451827 0.964665 -2.430209 0.942981 -1.783754 0.000000 0.000000 0.000000 0.000000 0.000000 0.000000 -3.207384 8.508336 2.625237 2.874375 -23.634517 -3.709456 16.188266 42.781274 -19.796007 -34.922331 -65.290848 2.494098 0.000000 0.000000 0.000000 0.000000 0.000000 0.000000 -1.169964 0.200205 44.190484 0.365857 -0.810963 0.136074 0.984079 -0.953457 -1.076966 0.000000 0.000000 0.000000 -0.342372 -0.126288 44.323435 -0.000000 0.000000 0.000000 -0.000000 0.000000 0.000000 0.000000 0.000000 0.000000
-71.933613 65.597839 366.536490 0.358930 -0.210095 -44.415981 -0.403412 -0.101138 44.416283 -0.000000 0.000000 0.000000 -1.815820 1.608302 -0.405850 0.000000 0.000000 0.000000 0.880562 0.857932 -0.418955 -0.874365 -0.864247 0.405768 2.817085 -0.904327 0.925613 -0.861123 0.762198 -1.274585 0.000000 0.000000 0.000000 0.000000 0.000000 0.000000 -3.073491 7.730862 2.442668 3.205998 -22.287521 -3.448269 18.806714 42.315312 -9.751156 -55.977901 -60.287953 -19.451116 0.000000 0.000000 0.000000 0.000000 0.000000 0.000000 -1.336415 0.274179 44.264353 0.406242 -0.919964 0.156600 1.274617 -0.791521 -1.234987 0.000000 0.000000 0.000000 -0.403412 -0.101138 44.416283 -0.000000 0.000000 0.000000 0.149283 -0.208859 -0.801075 0.000000 0.000000 0.000000
-71.918143 65.571017 366.579649 0.382033 -0.284287 -44.545415 -0.471691 -0.065380 44.546094 -0.000000 0.000000 0.000000 -1.950152 1.833120 -0.456758 0.000000 0.000000 0.000000 1.090412 0.903478 -0.492188 -0.644331 -1.466652 -0.056622 1.659592 -0.104348 1.205317 -0.496268 -0.111722 -1.667602 0.000000 0.000000 0.000000 0.000000 0.000000 0.000000 -1.900562 4.752682 1.470124 6.942107 -15.725090 -1.945095 3.670750 28.105944 -4.442431 -40.582976 -55.664357 -3.151273 0.000000 0.000000 0.000000 0.000000 0.000000 0.000000 -1.458853 0.427532 44.354406 0.361333 -1.042540 0.198096 1.513645 -1.310749 -1.596909 0.000000 0.000000 0.000000 -0.471691 -0.065380 44.546094 -0.000000 0.000000 0.000000 0.191599 -0.281808 -1.056113 0.000000 0.000000 0.000000
